<svg width="20" height="21" viewBox="0 0 20 21" fill="none" xmlns="http://www.w3.org/2000/svg">
<path d="M17.0106 2.90188C16.0937 1.97808 15.0023 1.24581 13.7999 0.747632C12.5974 0.249458 11.3078 -0.004651 10.0063 6.44432e-05C8.26629 0.00176551 6.5572 0.460602 5.05029 1.33062C3.54339 2.20064 2.29153 3.45131 1.42006 4.95736C0.548593 6.46343 0.0881301 8.17206 0.084753 9.91202C0.0813884 11.6521 0.535247 13.3624 1.40088 14.8719L0 20.0126L5.25328 18.6367C6.70388 19.4437 8.33383 19.8739 9.99375 19.8875C12.6325 19.8876 15.1645 18.8454 17.0384 16.9877C18.9124 15.1302 19.9769 12.6075 20 9.96881C19.9912 8.65211 19.7226 7.3501 19.2096 6.13741C18.6967 4.92472 17.9493 3.82521 17.0106 2.90188ZM10.0063 18.1739C8.52745 18.1749 7.07569 17.7774 5.80363 17.0232L5.50344 16.8356L2.38899 17.6611L3.21451 14.6217L3.01438 14.309C1.95028 12.5913 1.55315 10.5429 1.89821 8.55192C2.24328 6.56099 3.30658 4.76574 4.88668 3.50629C6.46679 2.24683 8.45391 1.61065 10.4717 1.71825C12.4894 1.82584 14.3977 2.66976 15.8349 4.09012C17.4059 5.62632 18.3052 7.72178 18.3365 9.91878C18.3167 12.115 17.4303 14.2146 15.8702 15.7607C14.3102 17.3066 12.2026 18.1741 10.0063 18.1739ZM14.5216 11.9951C14.2714 11.87 13.0582 11.2696 12.833 11.1946C12.6079 11.1195 12.4328 11.0695 12.2702 11.3197C12.0255 11.655 11.7624 11.9764 11.4822 12.2828C11.3446 12.4579 11.1945 12.4704 10.9443 12.2828C9.51807 11.7192 8.32983 10.681 7.57974 9.34342C7.31707 8.90564 7.82989 8.93066 8.30519 7.99257C8.34034 7.92491 8.3586 7.84986 8.3586 7.77369C8.3586 7.69751 8.34034 7.62247 8.30519 7.5548C8.30519 7.42971 7.74234 6.20394 7.54221 5.71614C7.34209 5.22833 7.14196 5.30338 6.97936 5.29087H6.49156C6.36517 5.29281 6.24065 5.32172 6.12633 5.37564C6.01201 5.42956 5.91052 5.50727 5.82864 5.60357C5.54799 5.87646 5.32909 6.20634 5.18669 6.57097C5.04429 6.9356 4.9817 7.32652 5.00313 7.7174C5.08155 8.65311 5.43393 9.54492 6.01626 10.2815C7.08218 11.8773 8.54296 13.1699 10.2564 14.0338C11.1551 14.5584 12.1995 14.7778 13.2333 14.6592C13.5775 14.5909 13.9036 14.451 14.1901 14.2484C14.4768 14.0459 14.7176 13.7852 14.8968 13.4835C15.0629 13.1153 15.1152 12.7059 15.0469 12.3078C14.9343 12.1827 14.7717 12.1202 14.5216 11.9951Z" fill="currentColor"/>
</svg>
